<?xml version="1.0" encoding="utf-8"?>
<!-- Generator: Adobe Illustrator 22.1.0, SVG Export Plug-In . SVG Version: 6.00 Build 0)  -->
<svg version="1.1"
	 id="svg17" xmlns:cc="http://creativecommons.org/ns#" xmlns:dc="http://purl.org/dc/elements/1.1/" xmlns:rdf="http://www.w3.org/1999/02/22-rdf-syntax-ns#" xmlns:svg="http://www.w3.org/2000/svg"
	 xmlns="http://www.w3.org/2000/svg" xmlns:xlink="http://www.w3.org/1999/xlink" x="0px" y="0px" viewBox="0 0 449 449"
	 style="enable-background:new 0 0 449 449;" xml:space="preserve">
<style type="text/css">
	.st0{display:none;}
	.st1{display:inline;fill:#C55B65;}
	.st2{fill:#FFFFFF;}
	.st3{fill:#242424;}
</style>
<g id="layer101" class="st0">
	<path id="path2" class="st1" d="M0,224.5V0h224.5H449v224.5V449H224.5H0V224.5z"/>
</g>
<g id="layer102">
	<path id="path5" class="st2" d="M0,224.5V0h224.5H449v224.5V449H224.5H0V224.5z M336,382c8-0.6,19.4-1.7,25.3-2.5
		c21.7-3.1,21-5.3-2.7-8.9l-9.8-1.5l-6.6,3.7l-6.7,3.7h-18c-17-0.1-18.4-0.2-24.5-2.7l-6.5-2.6l-6.2,3.5c-7.2,4-18.9,6.7-24.7,5.7
		c-4.9-0.8-10.2-3.3-14.6-7.1c-3-2.5-3.9-2.7-10.4-2.5c-9.2,0.4-19.6,1.9-23.2,3.3l-2.9,1.1l5.4,1.9c5.3,1.8,26.4,4.6,39.6,5.2
		C267.2,383.1,323,382.9,336,382z M104.4,378.9c11-1,21-3.4,22.7-5.5c1.5-1.8-2.4-3.4-15.9-6.4l-10.3-2.3l-13.7,3.7
		c-21.8,6-28.8,6.1-36.7,0.1L46,365l-9.2,0.9c-20,2-30.1,5.7-24,9c3.7,2,15.1,4.4,24.7,5.1C49.1,381,89.9,380.3,104.4,378.9z"/>
</g>
<g id="layer103">
	<path id="path8" class="st3" d="M253.5,380.1c-6.5-1.6-13.7-6.7-16-11.4c-0.8-1.7-2.4-4.3-3.3-5.5l-1.9-2.4l-10.3,2.1
		c-19.2,4-25.8,0.6-36-19l-4.9-9.6l-7-0.7c-9.5-0.8-17-3.8-22.8-9.1c-8.6-7.6-13.3-19.4-13.3-33v-7.1l21.8-10.4
		c11.9-5.7,42.2-20.2,67.2-32.3c25-12,63.7-30.7,86-41.4c22.3-10.8,49.7-24,61-29.5c20.2-9.8,20.6-9.9,26-9.3
		c10.5,1.3,17.7,4.2,23,9.3c7.8,7.6,8.9,15.4,4.1,30.3l-2.9,9l4,8.7c3.1,6.6,4.2,10.2,4.6,15.4c0.6,8.8-1.2,13.5-8.3,21.9l-5.5,6.4
		v11.8c0,15-1.9,23.7-6.9,31.4c-6.9,10.6-19.7,19.5-33.2,22.9c-10.1,2.5-9.7,2.1-16.4,16.9c-2,4.4-6,11.6-9,16.1
		c-4.7,6.9-6.4,8.6-11.7,11.5l-6.3,3.4h-18c-17-0.1-18.4-0.2-24.5-2.7l-6.5-2.6l-6.2,3.5c-3.3,1.8-9.2,4-13,4.8
		C259.9,381.1,258,381.2,253.5,380.1z M268.3,366.4c1.8-0.9,6.4-3.9,10.3-6.5c3.9-2.7,7.4-4.9,7.8-4.9c0.5,0,2.1,1.1,3.7,2.4
		c1.6,1.4,5.5,3.5,8.6,4.7c5,2,7.7,2.3,18.8,2.4c12.6,0,13.2-0.1,18.4-3c9.8-5.4,19.3-19.2,22.2-32.1c1.4-6.4,1.6-6.5,13-8.9
		c4.2-0.9,10.8-3.1,14.8-5c18.7-9,26.4-24.8,22.6-47l-1.7-9.7l5.9-6.1c3.3-3.4,6.8-7.5,7.8-9.1c1.8-2.8,1.8-2.9,0.1-4.2
		c-1.1-0.7-5.3-2.1-9.5-2.9c-24.6-5.3-43.1-11.9-43.1-15.5c0-1.7,6.2-1.1,10.9,1c4.5,2.1,12.1,3.7,12.1,2.7c0-0.4-2.2-4.1-5-8.3
		c-4.6-7.1-6.1-11.6-4.2-12.8c1.3-0.8,2.6,0.6,5.5,5.6c5.6,9.7,23,22.3,30,21.6c2.9-0.3,3.2-0.6,3-3.2c-0.1-1.6-2.1-6.1-4.3-10
		l-4.1-7l4.2-9c7.1-15.4,5.8-21.2-6.1-27.4c-5.2-2.7-7.3-3.3-10.7-2.9c-6.3,0.7-69.2,30.6-70,33.3c-0.2,0.7,3.2,3.7,7.5,6.7
		c9.9,7,15.7,13.5,21.8,24.8c3.6,6.7,5.2,8.8,6.4,8.3c9.1-3.9,11.6-4.5,16.1-3.9c2.6,0.4,5.5,1.2,6.5,1.9c3.1,2.3,0.6,3.6-7,3.6
		c-9.2,0-10.8,1.4-11.4,10l-0.4,5.9l-3.9-1.9c-2.1-1.1-4.7-2-5.8-2c-3.2,0-8.9,5.7-10.1,10.1c-1,3.7-3.1,5.1-4.5,2.9
		c-0.3-0.5,0.1-3.5,0.9-6.7c1.6-6,3.4-8.2,9.6-11.6c2.9-1.6,3.2-2.1,2.6-5c-0.3-1.7-2-6.1-3.8-9.7c-6-12.4-25.3-28.2-34.3-28.2
		c-4.3,0-20.1,7.4-24.1,11.3c-6.9,6.7-6.7,14.6,0.7,26.8c4.2,6.9,4.4,7.7,2.9,8.6c-1.2,0.8-4.5-1-14.7-7.8
		c-7.5-5.1-17.4-9.7-20.8-9.7c-0.8,0-3.2,1.7-5.5,3.8l-4,3.9v9.4c0,8.2,0.4,10.2,2.6,14.6c5.1,10.3,31.7,33,44.4,37.9
		c2.5,0.9,5.1,2.3,5.9,2.9c1.6,1.5,0.7,3.5-1.6,3.5c-2.5,0-17.9-7.6-25.2-12.5c-3.8-2.5-7.6-4.5-8.4-4.5c-2.7,0-4.7,7.7-7.7,30.3
		c-1,8.1-2.2,15.2-2.5,15.7c-3.7,6-3.1-20.4,0.9-37.4c1.4-6,2.8-11.7,3.1-12.6c0.4-1.1-2.4-5.5-7.9-12.7l-8.4-10.9l-0.3-12.1
		c-0.2-6.7-0.8-12.6-1.4-13.2c-1.3-1.3-12.4,3.2-30,12.2c-13.6,7-14,7.3-13.9,10.3c0.2,3.9,7.9,22.1,10.6,25.1
		c1.1,1.1,3.6,2.4,5.6,2.8c7.8,1.5,17.2,8.1,17.2,12.1c0,3.5-2,3-8.8-2.1c-8.2-6.1-11.3-6.7-15.1-2.6c-1.9,2-3.4,5.1-4.1,8.3
		c-1.1,5.5-2.7,8.1-4.1,7.2c-1.4-0.8-1.1-4.2,1.2-14l2.2-9.1l-3.7-9.4c-2.1-5.2-4.8-11.1-6.2-13.1l-2.4-3.7l-5.2,1.8
		c-14.9,5.2-43.5,19.5-44.3,22.2c-1.4,4.2,3.4,15.5,9.2,22c6.1,6.7,10.1,8.3,22.8,8.6l10.9,0.3l1.2,5.8
		c2.8,13.6,12.8,26.2,20.7,26.2c1.3,0,6.5-2,11.7-4.5l9.3-4.6l7.2,7.5C252.1,367.4,260,370.6,268.3,366.4z M284.2,235c1-6,0.3-8-3-8
		c-3.6,0-10.4,4.6-10,6.8c0.3,1.9,8.5,6.4,10.8,6C282.9,239.6,283.8,237.7,284.2,235z"/>
	<path id="path10" class="st3" d="M346.7,321.4c-0.4-0.4-0.7-3.1-0.7-6c0-9.1-1.9-11.9-17.8-26.1c-9-7.9-9.6-8.3-14.1-8.3
		c-7,0-15.3-2.7-14.9-4.8c0.4-1.8,2.5-2,9.5-0.7c4.8,0.9,5.7-0.2,7.3-8.7c1.9-9.8,4.2-9.1,4.8,1.3l0.4,6.9l11.7,11.1
		c15.3,14.7,17.6,16.1,24.9,16.3c9.5,0.2,12.6,4.6,3.3,4.6c-6.5,0-9,2.1-10.5,9C349.4,321.1,348.2,322.9,346.7,321.4z"/>
	<path id="path12" class="st3" d="M55.5,371.7c-3.9-1.8-9.5-6.6-9.5-8.1c0-2.1-5.2-6.2-12-9.3c-8.1-3.7-13.5-9-16.8-16.2
		c-3-6.5-3.3-14.1-1.8-41.4l0.8-15.9l4.6-3.1c2.5-1.8,8.9-6.6,14.4-10.7c32.3-24.5,53-38.3,54.7-36.4c0.5,0.5,2.1,6.5,3.6,13.4
		c7.2,33.5,22.8,66.6,42.2,89.4c8,9.4,10.6,13.3,10,14.9c-0.9,2.5-25.3,9.8-37.2,11.2c-6.4,0.7-8.7,1.9-7.9,3.9
		c0.3,0.8-4,2.4-13.3,5C71.8,372.7,60.4,373.9,55.5,371.7z M71.7,359.6c10.1-2.2,20-5.4,21.7-7.2c1.4-1.4,1.4-1.9-0.4-5.4
		c-1.1-2.2-4.4-7.7-7.4-12.2c-9.8-15.1-20.8-36.7-22.2-43.7c-0.6-2.7-0.3-3,3.1-4c4.7-1.3,5.1-1,6.5,3.7
		c4.7,14.8,30.7,54.9,37.7,58.1c3.2,1.5,11.4-0.7,15.6-4.1l2.7-2.3l-7.4-10.5c-15.5-22.1-29-50.8-35.1-74.9
		c-1.3-5.2-2.9-9.9-3.4-10.4c-1.9-1.9-29,16.2-32.7,21.9c-1.6,2.3-1.6,3.5-0.6,10.8c2.1,14.1,8.1,29.8,18.3,47.2
		c7.2,12.3,8.6,15.9,6.9,17.9c-2.2,2.7-5.6,1.7-9.4-2.7c-7.8-9.1-24.6-47.5-24.6-56.2c0-2.6-2.3-5.6-4.3-5.6c-1.7,0-6.9,3-10.5,6.1
		l-3,2.6L25,299c2.5,13.9,5.4,23,10.1,32.1c5.9,11.3,16.7,23.5,25.3,28.6C63.1,361.3,63.6,361.3,71.7,359.6z"/>
	<path id="path14" class="st3" d="M124.6,268.7c-4.1-4.1-7.5-8.8-9.7-13.3c-3.2-6.5-3.4-7.4-3.4-17.5c0-10.5,0-10.7,4.3-19
		c2.3-4.6,4.2-9,4.2-9.7c0-0.8-1.7-5-3.7-9.5c-3.5-7.7-3.7-8.8-3.7-18.2c-0.1-13.3,1.9-16.7,14-24.9l4.7-3.2l0.1-13
		c0.1-12.3,0.2-13.1,3.1-18.2c3.6-6.7,7.1-9.7,16-13.7c3.9-1.8,7.8-4.2,8.8-5.3c1-1.1,3.1-5.4,4.7-9.6c1.5-4.1,4-9.6,5.5-12.1
		c3.9-6.8,14.6-17.7,20.3-20.8c9.3-5,25.8-5.3,39.8-0.7c3.4,1.2,7.1,2.2,8.1,2.3c1,0,5.3-2.3,9.7-5.2c12.7-8.6,22.3-12.1,33.1-12.1
		c13.4,0,24.5,4.9,35.6,15.6l7.5,7.4l11.5-0.1c16.9-0.3,20.3,1.9,29.4,18.5c2.5,4.5,5.3,9,6.4,10c1,0.9,5.4,3,9.7,4.7
		c14.7,5.7,18.9,11,18.9,24.4c0,7-0.4,8.9-3.4,15.3c-4.6,9.8-6.6,11.1-43.4,28.8c-12.2,5.9-37.5,18.1-56.2,27.2
		c-18.7,9-50.2,24.2-70,33.7s-45,21.7-56,27c-21.9,10.6-37,17.5-38.6,17.5C131.4,275,128.1,272.1,124.6,268.7z M146.4,258
		c12.6-5.9,17-9.3,16.1-12.7c-1.3-5.3-5.6-10.3-9.9-11.4c-4.9-1.3-11.1-0.6-13.5,1.5c-2.7,2.4-8.7,2.1-10.5-0.6
		c-2.2-3.1-2-6.4,0.4-8.8c2.7-2.7,6.6-2.5,10.1,0.4c2.6,2.2,8.3,3.6,18.9,4.8c1.8,0.2,3.2,1.6,5,5c3.4,6.2,5.9,8.8,8.5,8.8
		c2.8,0,11.5-5.6,11.5-7.4c0-0.8-2-5.8-4.4-11l-4.5-9.6h-12.3h-12.3l-5.3-10.5c-2.9-5.8-6.9-12.5-9-14.8c-5-5.4-5.6-7.4-3.7-10.4
		c1.3-1.8,2.3-2.3,4.7-2.1c3.6,0.4,4.2,1.3,5.7,9.3c1.4,7.5,7.7,20.3,11.4,23c2.3,1.6,4.7,2.1,13,2.3l10.2,0.4l4.3,9.1
		c2.3,5.1,5.1,10.3,6.2,11.7l1.9,2.5l6.5-3.2c3.6-1.8,6.6-3.7,6.6-4.1c0-0.5-3.2-7.3-7.1-15.2c-5.8-11.7-8.1-15.4-12.6-19.7
		c-5.2-4.9-5.5-5.5-5-8.9c0.8-4.8,2.3-6.4,6-6.4c4.8,0,6.7,2.4,6.7,8.7c0,6.2,4.2,17.3,11.7,31.1c4.2,7.9,4.7,8.3,7.1,7.7
		c3-0.7,9.5-4.3,13.1-7.2l2.2-1.8l-2.1-5.7c-3.9-10.4-18.8-39.4-21.5-41.9c-1.5-1.3-3.6-3.2-4.6-4.1c-2.5-2.3-2.4-5.3,0.1-7.8
		c2.1-2.1,6.5-2.6,8.8-1.1c0.8,0.4,1.7,3.7,2.2,7.3c0.9,7.6,7.3,23.4,15.8,38.9c5.6,10.2,5.8,10.4,9.5,10.7
		c3.6,0.3,11.6-3.2,13.2-5.8c0.9-1.4-31.6-62-34.3-63.8c-4.1-2.7-15.3-5.2-23.4-5.2c-6.6,0-7.9-0.3-8.8-1.9
		c-4.2-8,3.5-10.8,12.6-4.6c2.1,1.4,6.3,3.2,9.3,4.1c14.8,4.1,11.5,0.4,29.9,34.5c9,16.7,17.1,31.2,17.9,32.2c2.1,2.3,5,2.1,9.7-0.6
		c6.2-3.5,6.5-4.6,2.7-12.1c-1.9-3.6-5.3-8.8-7.7-11.6c-2.5-3-4.4-6.2-4.4-7.5c0-2.9,3-4.8,6.8-4.3c2.5,0.3,2.8,0.9,4.4,8.3
		c1.8,8.7,3.9,14.5,6.9,18.7c1.8,2.4,2.2,2.6,5.2,1.6c6.1-2,27.8-13,28.4-14.4c0.8-2.1-2.7-4.5-17.1-11.9l-12.9-6.7l-6.1-12.6
		c-8.3-17.5-10.6-21.3-15.3-24.4c-4.6-3.2-6-6.6-4.1-10.6c1.1-2.2,2.1-2.8,5.5-3c5.5-0.4,7.3,2.1,7.3,10c0,5.3,0.7,7.3,8.3,22.1
		l8.2,16.2l17.5,9.2l17.5,9.2l8.9-4.7c4.9-2.6,9.1-5.2,9.3-5.9c0.6-1.6-3.5-3.6-20.7-10.3l-14.5-5.7l-15-30.3
		c-12.6-25.3-15.8-30.9-19.3-34c-3.4-3-4.2-4.4-4.2-7.1c0-4.6,0.9-5.6,5.2-6.4c3.1-0.6,3.8-0.4,5.2,1.7c0.9,1.4,1.5,4.2,1.5,6.4
		c-0.1,2.5,1.2,7.1,3.6,12.9c4.9,12,24.4,52.7,25.9,54.1c0.6,0.6,10.2,4.4,21.2,8.3l20.2,7.3l9.3-4.6c5.2-2.5,10.5-5.4,11.8-6.4
		l2.3-1.9l-7-15.2c-6.5-14.4-7.2-15.5-11.3-17.8c-8.8-5.1-19.5-10.1-22.9-10.8c-6.8-1.4-9.4-6.9-4.6-10c3-2,5.1-1.2,9.9,3.6
		c2.1,2.2,7.7,6.5,12.5,9.8c4.8,3.2,9.7,6.9,10.9,8.2c1.2,1.3,4.9,7.5,8.2,13.7c9.7,18.1,9.4,17.8,17.7,13.7
		c9.5-4.7,17.4-15.3,17.4-23.4c0-7.7-7.5-14-19.4-16.6c-3.7-0.7-7.4-1.9-8.2-2.6c-0.8-0.6-3.6-5.7-6.3-11.3
		c-3.5-7.2-6.2-11.4-9.2-14l-4.2-3.9l-12,0.7l-11.9,0.7l-9.2-8.9c-9.9-9.6-15.2-12.7-24.2-14.3c-7.6-1.3-11.9,0-10.9,3.4
		c2.3,7.6,26.4,57.9,30.8,64.1c2.8,3.9,9,6.4,17.8,7.2c4.1,0.4,8,1.1,8.7,1.7c1.7,1.4,1.5,6.7-0.5,8.9c-2.9,3.2-7,2.3-11.4-2.6
		c-2.4-2.6-6.7-5.7-10.7-7.6l-6.7-3.2l-17.2-34.9C272.7,64.1,268.8,57,267.2,57c-2.4,0-13,6.9-20.3,13.1c-4.7,4.1-6.2,4.9-9,4.7
		c-4.8-0.4-4.9,2.2-0.3,12.2l3.8,8.2l-6.2,12.4c-3.4,6.8-6.2,13.4-6.2,14.5c0,3.6,10.6,24.4,14.1,27.5c1.7,1.6,4,3.7,5,4.7
		c4,3.6,0.8,10.7-4.8,10.7c-4,0-6.3-2.7-6.3-7.4c0-5.9-1.5-10.6-7.6-23.5l-5.5-11.6l6.1-12.7c3.3-6.9,6-13.7,6-15.1
		c0-3.2-10.1-23.7-13-26.2c-1.9-1.8-3.6-2-13.6-2c-16.7,0-17.2,1.2-8.2,18.7c3.7,7.1,5.9,10.1,10.3,13.6c1.1,0.9,1.5,2.6,1.3,5
		c-0.3,3.6-0.4,3.7-4.2,3.6c-4.3-0.2-6.6-2.3-6.6-6.1c0-5-7.5-22.6-11-25.8c-1.2-1.1-2.6-1.4-3.9-1c-2.2,0.7-7.1,8.1-7.1,10.7
		c0,3.1,7.1,15.5,11.5,20c5,5.3,5.4,6.9,2.5,9.8c-4.5,4.5-10,0.9-10-6.5S179.8,93,176,93c-2.3,0-4.8,5.5-6.4,13.8
		c-1,5.3-1.6,6.8-3.2,7c-4.6,0.8-11.3,3.4-12.8,5.1c-2.1,2.3-1.5,4.1,9.4,27.6l8.1,17.5l-3.6,9.7c-3,7.9-3.7,11.1-3.7,16.5
		c0.1,4.8-0.4,7.2-1.4,8.3c-2,2-7.8,1.9-9.8-0.1c-2.8-2.7-1.9-5.9,3.2-11.1c3.5-3.6,5.5-7,8-13.3c1.7-4.7,3.2-9.1,3.2-9.8
		c0-1.4-17.5-36.9-19.2-38.9c-1.5-1.9-2.6-1.6-5.5,1.5c-2.5,2.7-2.5,2.7-1.9,15.7c0.4,7.2,0.7,14.1,0.9,15.4c0.2,2-0.8,2.9-6.2,5.7
		c-7,3.6-11.5,7.4-13.8,11.8c-3.1,6,0.4,17.1,9.5,29.6l4,5.5l-5.3,5.7c-13,14-13.4,26-1.5,42.1C133,264.9,131.7,264.9,146.4,258z"/>
</g>
</svg>
